<svg width="51" height="44" viewBox="0 0 51 44" fill="none" xmlns="http://www.w3.org/2000/svg">
<circle r="22" transform="matrix(-1 0 0 1 25.3562 22)" fill="#FFD02D"/>
<rect width="36.08" height="12.0267" transform="matrix(-1 0 0 1 45.0095 16.1334)" fill="#FFD02D"/>
<rect width="0.350291" height="4.90408" transform="matrix(-1 0 0 1 0.350342 21.5538)" fill="white"/>
<rect width="0.350291" height="4.90408" transform="matrix(-1 0 0 1 2.10178 21.5538)" fill="white"/>
<rect width="0.350291" height="4.90408" transform="matrix(-1 0 0 1 3.85327 21.5538)" fill="white"/>
<rect width="0.350291" height="4.90408" transform="matrix(-1 0 0 1 5.60471 21.5538)" fill="white"/>
<rect width="0.350291" height="9.45786" transform="matrix(-1 0 0 1 7.35614 17)" fill="white"/>
<rect width="0.350291" height="4.90408" transform="matrix(-1 0 0 1 9.35031 21.5538)" fill="white"/>
<rect width="0.350291" height="4.90408" transform="matrix(-1 0 0 1 11.1017 21.5538)" fill="white"/>
<rect width="0.350291" height="4.90408" transform="matrix(-1 0 0 1 12.8532 21.5538)" fill="white"/>
<rect width="0.350291" height="4.90408" transform="matrix(-1 0 0 1 14.6047 21.5538)" fill="white"/>
<rect width="0.350291" height="9.45786" transform="matrix(-1 0 0 1 16.3561 17)" fill="white"/>
<rect width="0.350291" height="4.90408" transform="matrix(-1 0 0 1 45.3503 21.5538)" fill="white"/>
<rect width="0.350291" height="4.90408" transform="matrix(-1 0 0 1 47.1018 21.5538)" fill="white"/>
<rect width="0.350291" height="4.90408" transform="matrix(-1 0 0 1 48.8533 21.5538)" fill="white"/>
<rect width="0.350291" height="4.90408" transform="matrix(-1 0 0 1 50.6047 21.5538)" fill="white"/>
<rect width="0.350291" height="4.90408" transform="matrix(-1 0 0 1 18.3503 21.5538)" fill="white"/>
<rect width="0.350291" height="4.90408" transform="matrix(-1 0 0 1 20.1018 21.5538)" fill="white"/>
<rect width="0.350291" height="4.90408" transform="matrix(-1 0 0 1 21.8533 21.5538)" fill="white"/>
<rect width="0.350291" height="4.90408" transform="matrix(-1 0 0 1 23.6047 21.5538)" fill="white"/>
<rect width="0.350291" height="9.45786" transform="matrix(-1 0 0 1 25.3561 17)" fill="white"/>
<rect width="0.350291" height="4.90408" transform="matrix(-1 0 0 1 27.3503 21.5538)" fill="white"/>
<rect width="0.350291" height="4.90408" transform="matrix(-1 0 0 1 29.1018 21.5538)" fill="white"/>
<rect width="0.350291" height="4.90408" transform="matrix(-1 0 0 1 30.8533 21.5538)" fill="white"/>
<rect width="0.350291" height="4.90408" transform="matrix(-1 0 0 1 32.6047 21.5538)" fill="white"/>
<rect width="0.350291" height="9.45786" transform="matrix(-1 0 0 1 34.3561 17)" fill="white"/>
<rect width="0.350291" height="4.90408" transform="matrix(-1 0 0 1 36.3503 21.5538)" fill="white"/>
<rect width="0.350291" height="4.90408" transform="matrix(-1 0 0 1 38.1018 21.5538)" fill="white"/>
<rect width="0.350291" height="4.90408" transform="matrix(-1 0 0 1 39.8533 21.5538)" fill="white"/>
<rect width="0.350291" height="4.90408" transform="matrix(-1 0 0 1 41.6047 21.5538)" fill="white"/>
<rect width="0.350291" height="9.45786" transform="matrix(-1 0 0 1 43.3562 17)" fill="white"/>
</svg>
