<svg width="25" height="25" viewBox="0 0 25 25" fill="none" xmlns="http://www.w3.org/2000/svg">
<path d="M1.38192 19.0475L17.8676 2.57314L17.1608 1.86579L0.675061 18.3401L1.38192 19.0475ZM6.83391 24.5025L24.0613 7.28295L23.3544 6.57569L6.12697 23.7952L6.83391 24.5025ZM0.682617 18.4139L0.680879 23.4499L1.68088 23.4502L1.68262 18.4143L0.682617 18.4139ZM0.690257 24.4403L6.90346 24.4425L6.9038 23.4425L0.690602 23.4403L0.690257 24.4403ZM20.158 3.46903L24.0103 7.32398L24.7177 6.61712L20.8654 2.76217L20.158 3.46903ZM17.909 1.23374L21.2062 4.53318L21.9135 3.82631L18.6164 0.526879L17.909 1.23374ZM20.7334 6.5563L5.52585 21.7638L6.23295 22.4709L21.4405 7.2634L20.7334 6.5563ZM17.9052 3.72787L2.69772 18.9354L3.40483 19.6425L18.6123 4.43497L17.9052 3.72787ZM19.3193 5.14208L4.11178 20.3496L4.81889 21.0567L20.0264 5.84919L19.3193 5.14208Z" fill="#D7A700"/>
</svg>
